<svg width="33" height="32" viewBox="0 0 33 32" fill="none" xmlns="http://www.w3.org/2000/svg">
<path d="M18.614 15.7703C18.614 20.7979 14.447 24.8736 9.30715 24.8736C4.16725 24.8736 0 20.797 0 15.7703C0 10.7436 4.16694 6.66667 9.30715 6.66667C14.4474 6.66667 18.614 10.7426 18.614 15.7703Z" fill="white"/>
<path d="M28.8239 15.7703C28.8239 20.5027 26.7404 24.3406 24.1703 24.3406C21.6002 24.3406 19.5167 20.5027 19.5167 15.7703C19.5167 11.0378 21.5999 7.19994 24.17 7.19994C26.7401 7.19994 28.8235 11.0366 28.8235 15.7703" fill="white"/>
<path d="M33 15.7703C33 20.0094 32.2673 23.4479 31.3633 23.4479C30.4593 23.4479 29.7269 20.0103 29.7269 15.7703C29.7269 11.5302 30.4596 8.09259 31.3633 8.09259C32.267 8.09259 33 11.5299 33 15.7703Z" fill="white"/>
</svg>
