<svg width="50" height="50" viewBox="0 0 50 50" fill="none" xmlns="http://www.w3.org/2000/svg">
<path d="M30.4304 7.29169C30.7067 7.29169 30.9716 7.40143 31.167 7.59678L37.0595 13.4893C37.4663 13.8961 37.4663 14.5557 37.0595 14.9625L17.9087 34.1133C17.7778 34.2442 17.6145 34.3378 17.4354 34.3846L9.4595 36.4679C9.1017 36.5614 8.72117 36.4581 8.45968 36.1966C8.19819 35.9351 8.09494 35.5546 8.1884 35.1968L10.2717 27.2209C10.3185 27.0418 10.4121 26.8785 10.543 26.7476L29.6938 7.59678C29.8892 7.40143 30.1541 7.29169 30.4304 7.29169Z" fill="#FFFFFF"/>
<path d="M8.33331 40.1042C7.47037 40.1042 6.77081 40.8037 6.77081 41.6667C6.77081 42.5296 7.47037 43.2292 8.33331 43.2292H39.5833C40.4463 43.2292 41.1458 42.5296 41.1458 41.6667C41.1458 40.8037 40.4463 40.1042 39.5833 40.1042H8.33331Z" fill="#FFFFFF"/>
</svg>
